<svg width="48" height="48" viewBox="0 0 48 48" fill="none" xmlns="http://www.w3.org/2000/svg">
<circle cx="24" cy="24" r="24" fill="#E6E6E6"/>
<path d="M39.4668 24.5332C39.4668 31.987 34.0056 38.1651 26.8668 39.2851V28.8499H30.3463L31.0084 24.5332H26.8668V21.732C26.8668 20.5508 27.4454 19.3999 29.3004 19.3999H31.1834V15.7249C31.1834 15.7249 29.4743 15.4332 27.8403 15.4332C24.4296 15.4332 22.2001 17.5005 22.2001 21.2432V24.5332H18.4084V28.8499H22.2001V39.2851C15.0613 38.1651 9.6001 31.987 9.6001 24.5332C9.6001 16.286 16.2863 9.59985 24.5334 9.59985C32.7806 9.59985 39.4668 16.286 39.4668 24.5332Z" fill="#1877F2"/>
<path d="M30.3461 28.8498L31.0082 24.5331H26.8665V21.7319C26.8665 20.5509 27.4451 19.3998 29.3001 19.3998H31.1832V15.7248C31.1832 15.7248 29.4743 15.4331 27.8404 15.4331C24.4293 15.4331 22.1999 17.5004 22.1999 21.2431V24.5331H18.4082V28.8498H22.1999V39.285C22.9602 39.4043 23.7394 39.4664 24.5332 39.4664C25.327 39.4664 26.1062 39.4043 26.8665 39.285V28.8498H30.3461Z" fill="white"/>
</svg>
