<svg width="48" height="48" viewBox="0 0 48 48" fill="none" xmlns="http://www.w3.org/2000/svg">
<circle cx="24" cy="24" r="24" fill="#E6E6E6"/>
<path d="M24.5337 39.5332C32.818 39.5332 39.5337 32.8175 39.5337 24.5332C39.5337 16.2489 32.818 9.5332 24.5337 9.5332C16.2494 9.5332 9.53369 16.2489 9.53369 24.5332C9.53369 32.8175 16.2494 39.5332 24.5337 39.5332Z" fill="url(#paint0_linear_449_890)"/>
<path d="M27.7204 16.2H21.3537C18.5137 16.2 16.207 18.5066 16.207 21.3466V27.7133C16.207 30.5533 18.5137 32.86 21.3537 32.86H27.7204C30.5604 32.86 32.867 30.5533 32.867 27.7133V21.3466C32.867 18.5066 30.5604 16.2 27.7204 16.2ZM31.007 27.72C31.007 29.5333 29.5337 31.0133 27.7137 31.0133H21.347C19.5337 31.0133 18.0537 29.54 18.0537 27.72V21.3533C18.0537 19.54 19.527 18.06 21.347 18.06H27.7137C29.527 18.06 31.007 19.5333 31.007 21.3533V27.72Z" fill="white"/>
<path d="M24.5339 20.2732C22.1873 20.2732 20.2739 22.1865 20.2739 24.5332C20.2739 26.8799 22.1873 28.7932 24.5339 28.7932C26.8806 28.7932 28.7939 26.8799 28.7939 24.5332C28.7939 22.1865 26.8806 20.2732 24.5339 20.2732ZM24.5339 27.1199C23.1073 27.1199 21.9473 25.9599 21.9473 24.5332C21.9473 23.1065 23.1073 21.9465 24.5339 21.9465C25.9606 21.9465 27.1206 23.1065 27.1206 24.5332C27.1206 25.9599 25.9606 27.1199 24.5339 27.1199Z" fill="white"/>
<path d="M29.1189 20.7404C29.5113 20.6764 29.7777 20.3065 29.7138 19.914C29.6498 19.5215 29.2799 19.2552 28.8874 19.3191C28.4949 19.383 28.2286 19.753 28.2925 20.1455C28.3564 20.5379 28.7264 20.8043 29.1189 20.7404Z" fill="white"/>
<defs>
<linearGradient id="paint0_linear_449_890" x1="13.1123" y1="35.9546" x2="34.429" y2="14.6379" gradientUnits="userSpaceOnUse">
<stop stop-color="#FEE411"/>
<stop offset="0.052" stop-color="#FEDB16"/>
<stop offset="0.138" stop-color="#FEC125"/>
<stop offset="0.248" stop-color="#FE983D"/>
<stop offset="0.376" stop-color="#FE5F5E"/>
<stop offset="0.5" stop-color="#FE2181"/>
<stop offset="1" stop-color="#9000DC"/>
</linearGradient>
</defs>
</svg>
