<svg width="48" height="48" viewBox="0 0 48 48" fill="none" xmlns="http://www.w3.org/2000/svg">
<circle cx="24" cy="24" r="24" fill="#E6E6E6"/>
<path d="M24.0001 38.3996C31.953 38.3996 38.4001 31.9525 38.4001 23.9996C38.4001 16.0467 31.953 9.59961 24.0001 9.59961C16.0472 9.59961 9.6001 16.0467 9.6001 23.9996C9.6001 31.9525 16.0472 38.3996 24.0001 38.3996Z" fill="#007AB9"/>
<path d="M32.604 25.1582V31.095H29.162V25.5561C29.162 24.1653 28.6651 23.2156 27.4188 23.2156C26.4678 23.2156 25.9028 23.855 25.6533 24.4741C25.5627 24.6954 25.5393 25.0027 25.5393 25.313V31.0948H22.097C22.097 31.0948 22.1432 21.7136 22.097 20.7426H25.5395V22.2096C25.5326 22.2211 25.5229 22.2324 25.5167 22.2435H25.5395V22.2096C25.997 21.5057 26.8127 20.4995 28.6417 20.4995C30.9062 20.4995 32.604 21.9791 32.604 25.1582ZM18.4961 15.7524C17.3187 15.7524 16.5483 16.5253 16.5483 17.5408C16.5483 18.5347 17.2963 19.33 18.451 19.33H18.4733C19.6738 19.33 20.4203 18.5347 20.4203 17.5408C20.3975 16.5253 19.6738 15.7524 18.4961 15.7524ZM16.7529 31.095H20.1939V20.7426H16.7529V31.095Z" fill="#F1F2F2"/>
</svg>
