<svg width="48" height="48" viewBox="0 0 48 48" fill="none" xmlns="http://www.w3.org/2000/svg">
<circle cx="24" cy="24" r="24" fill="#E6E6E6"/>
<path d="M24.0001 9.59985C16.0475 9.59985 9.6001 16.0472 9.6001 23.9999C9.6001 31.9525 16.0475 38.3999 24.0001 38.3999C31.9527 38.3999 38.4001 31.9525 38.4001 23.9999C38.4001 16.0472 31.9527 9.59985 24.0001 9.59985Z" fill="black"/>
<path d="M25.5756 22.6967L31.74 15.531H30.2793L24.9266 21.7529L20.6515 15.531H15.7207L22.1855 24.9396L15.7207 32.4539H17.1816L22.8341 25.8834L27.3489 32.4539H32.2797L25.5752 22.6967H25.5756ZM17.7079 16.6307H19.9517L30.2799 31.4042H28.0361L17.7079 16.6307Z" fill="white"/>
</svg>
