<svg width="48" height="48" viewBox="0 0 48 48" fill="none" xmlns="http://www.w3.org/2000/svg">
<circle cx="24" cy="24" r="24" fill="#E6E6E6"/>
<path d="M32.1648 14.5898H16.3022C13.1899 14.5898 10.667 17.1128 10.667 20.225V28.1547C10.667 31.2669 13.1899 33.7898 16.3022 33.7898H32.1648C35.277 33.7898 37.8 31.2669 37.8 28.1547V20.225C37.8 17.1128 35.277 14.5898 32.1648 14.5898ZM28.3538 24.5756L20.9343 28.1143C20.7366 28.2086 20.5082 28.0644 20.5082 27.8454V20.547C20.5082 20.3248 20.7426 20.1809 20.9407 20.2813L28.3602 24.0411C28.5808 24.1529 28.577 24.4692 28.3538 24.5756Z" fill="#F61C0D"/>
</svg>
